<svg width="54" height="54" viewBox="0 0 54 54" fill="none" xmlns="http://www.w3.org/2000/svg"><rect width="54" height="54" rx="10" fill="#0055B8"/><path d="M11.4232 12.4258H4.59497V41.5718H11.4232V12.4258Z" fill="white"/><path d="M28.5257 16.1016C24.2657 16.1407 20.0226 16.7306 15.8747 17.8603L16.8277 23.2788C20.2325 22.2468 23.7311 21.6905 27.2493 21.6217C30.3618 21.6217 32.5912 22.3537 32.766 25.2104C30.1008 24.5551 27.3854 24.2145 24.6613 24.1938C19.7653 24.1938 14.4233 25.6068 14.4233 31.31C14.4233 36.21 17.9817 37.8976 22.6417 37.8976C26.1896 37.9449 29.6842 36.8922 32.766 34.8478V37.4503H39.5768V26.8979C39.5768 18.9887 35.9747 16.1016 28.5257 16.1016ZM32.766 31.2896C30.1942 31.8258 27.595 32.1654 24.9849 32.3062C22.432 32.3062 21.5489 31.859 21.5489 30.6797C21.5489 29.5004 22.6767 28.9921 25.6755 28.9921C28.0498 29.0357 30.4187 29.2666 32.766 29.6834V31.2896Z" fill="white"/><path d="M49.4049 12.3438H42.5767V41.6525H49.4049V12.3438Z" fill="white"/></svg>
